<?xml version="1.0" encoding="utf-8"?>
<!-- Generator: Adobe Illustrator 19.0.0, SVG Export Plug-In . SVG Version: 6.00 Build 0)  -->
<svg version="1.1" id="Layer_1" xmlns="http://www.w3.org/2000/svg" xmlns:xlink="http://www.w3.org/1999/xlink" x="0px" y="0px"
	 viewBox="0 0 14.8 14.8" style="enable-background:new 0 0 14.8 14.8;" xml:space="preserve">
<style type="text/css">
	.st0{fill:#231F1D;}
</style>
<g id="XMLID_69_">
	<path id="XMLID_9_" class="st0" d="M7.2,0.1L6,3.3C5.8,3.3,5.6,3.4,5.5,3.5L2.4,2.1C2.2,2.1,2.1,2.2,2.1,2.4l1.4,3.1
		C3.4,5.6,3.3,5.8,3.3,6L0.1,7.2C0,7.3,0,7.5,0.1,7.6l3.1,1.2C3.3,9,3.4,9.2,3.5,9.4l-1.4,3.1c-0.1,0.2,0.1,0.3,0.3,0.3l3.1-1.4
		c0.2,0.1,0.4,0.2,0.6,0.2l1.2,3.1c0.1,0.2,0.3,0.2,0.4,0l1.2-3.1c0.2-0.1,0.4-0.1,0.6-0.2l3.1,1.4c0.2,0.1,0.3-0.1,0.3-0.3
		l-1.4-3.1c0.1-0.2,0.2-0.4,0.2-0.6l3.1-1.2c0.2-0.1,0.2-0.3,0-0.4L11.6,6c-0.1-0.2-0.1-0.4-0.2-0.6l1.4-3.1
		c0.1-0.2-0.1-0.3-0.3-0.3L9.4,3.5C9.2,3.4,9,3.3,8.8,3.3L7.6,0.1C7.5,0,7.3,0,7.2,0.1z"/>
</g>
</svg>
