<?xml version="1.0" encoding="utf-8"?>
<!-- Generator: Adobe Illustrator 19.0.0, SVG Export Plug-In . SVG Version: 6.00 Build 0)  -->
<svg version="1.1" id="Layer_1" xmlns="http://www.w3.org/2000/svg" xmlns:xlink="http://www.w3.org/1999/xlink" x="0px" y="0px"
	 viewBox="0 0 17.3 17.3" style="enable-background:new 0 0 17.3 17.3;" xml:space="preserve">
<g id="XMLID_1_">
	<path id="XMLID_12_" d="M6.5,0.2l-0.6,4C5.7,4.3,5.5,4.4,5.3,4.6L1.4,3.8C1.2,3.8,1,4,1.1,4.2l2.4,3.2C3.5,7.6,3.4,7.9,3.4,8.1
		l-3.3,2.2c-0.2,0.1-0.1,0.4,0.1,0.4l4,0.6c0.1,0.2,0.3,0.4,0.4,0.6l-0.8,3.9c0,0.2,0.2,0.4,0.4,0.2l3.2-2.4
		c0.2,0.1,0.5,0.1,0.7,0.1l2.2,3.3c0.1,0.2,0.4,0.1,0.4-0.1l0.6-4c0.2-0.1,0.4-0.3,0.6-0.4l3.9,0.8c0.2,0,0.4-0.2,0.2-0.4l-2.4-3.2
		c0.1-0.2,0.1-0.5,0.1-0.7l3.3-2.2c0.2-0.1,0.1-0.4-0.1-0.4l-4-0.6c-0.1-0.2-0.3-0.4-0.4-0.6l0.8-3.9c0-0.2-0.2-0.4-0.4-0.2L9.8,3.5
		C9.6,3.5,9.4,3.4,9.1,3.4L6.9,0.1C6.8-0.1,6.5,0,6.5,0.2z"/>
</g>
</svg>
